<svg width="24" height="24" viewBox="0 0 24 24" fill="none" xmlns="http://www.w3.org/2000/svg">
<path d="M22 12.4481C22 11.759 21.9333 11.0477 21.8222 10.3809H12.1973V14.3153H17.7099C17.4876 15.5823 16.7541 16.6937 15.6649 17.405L18.9547 19.9613C20.8886 18.1608 22 15.5378 22 12.4481Z" fill="#4280EF"/>
<path d="M12.1976 22.4061C14.9539 22.4061 17.2657 21.4948 18.9551 19.9388L15.6653 17.4048C14.7539 18.0272 13.5758 18.3828 12.1976 18.3828C9.53022 18.3828 7.28515 16.5823 6.4627 14.1816L3.08398 16.7824C4.8178 20.2278 8.32989 22.4061 12.1976 22.4061Z" fill="#34A353"/>
<path d="M6.46235 14.1593C6.04001 12.8923 6.04001 11.5141 6.46235 10.2471L3.08363 7.62418C1.63879 10.5139 1.63879 13.9148 3.08363 16.7823L6.46235 14.1593Z" fill="#F6B704"/>
<path d="M12.1976 6.04596C13.6425 6.02373 15.0651 6.57944 16.1098 7.57972L19.0217 4.64557C17.1768 2.91175 14.7317 1.97816 12.1976 2.00039C8.32989 2.00039 4.8178 4.17877 3.08398 7.62417L6.4627 10.2471C7.28515 7.82423 9.53022 6.04596 12.1976 6.04596Z" fill="#E54335"/>
</svg>
